<mxfile host="app.diagrams.net" modified="2023-10-16T06:57:36.444Z" agent="Mozilla/5.0 (Windows NT 10.0; Win64; x64) AppleWebKit/537.36 (KHTML, like Gecko) Chrome/118.0.0.0 Safari/537.36" etag="yX4m3qbeWltuRTJX94Tc" version="22.0.4" type="github">
  <diagram name="PÃ¡gina-1" id="wV-5iNE1BiXudyObkM9z">
    <mxGraphModel dx="794" dy="432" grid="1" gridSize="10" guides="1" tooltips="1" connect="1" arrows="1" fold="1" page="1" pageScale="1" pageWidth="827" pageHeight="1169" math="0" shadow="0">
      <root>
        <mxCell id="0" />
        <mxCell id="1" parent="0" />
        <mxCell id="T0UDSDWsj33H_eJTzJVy-1" value="USE CASE 23" style="ellipse;whiteSpace=wrap;html=1;" vertex="1" parent="1">
          <mxGeometry x="350" y="190" width="120" height="80" as="geometry" />
        </mxCell>
        <mxCell id="T0UDSDWsj33H_eJTzJVy-2" value="USE CASE 25" style="ellipse;whiteSpace=wrap;html=1;" vertex="1" parent="1">
          <mxGeometry x="200" y="310" width="120" height="80" as="geometry" />
        </mxCell>
        <mxCell id="T0UDSDWsj33H_eJTzJVy-9" style="edgeStyle=orthogonalEdgeStyle;rounded=0;orthogonalLoop=1;jettySize=auto;html=1;exitX=1;exitY=0;exitDx=0;exitDy=0;entryX=0;entryY=0.5;entryDx=0;entryDy=0;" edge="1" parent="1" source="T0UDSDWsj33H_eJTzJVy-3" target="T0UDSDWsj33H_eJTzJVy-4">
          <mxGeometry relative="1" as="geometry" />
        </mxCell>
        <mxCell id="T0UDSDWsj33H_eJTzJVy-3" value="USE CASE 24" style="ellipse;whiteSpace=wrap;html=1;" vertex="1" parent="1">
          <mxGeometry x="400" y="340" width="120" height="80" as="geometry" />
        </mxCell>
        <mxCell id="T0UDSDWsj33H_eJTzJVy-10" style="edgeStyle=orthogonalEdgeStyle;rounded=0;orthogonalLoop=1;jettySize=auto;html=1;exitX=0.5;exitY=1;exitDx=0;exitDy=0;entryX=0.5;entryY=0;entryDx=0;entryDy=0;" edge="1" parent="1" source="T0UDSDWsj33H_eJTzJVy-4" target="T0UDSDWsj33H_eJTzJVy-5">
          <mxGeometry relative="1" as="geometry" />
        </mxCell>
        <mxCell id="T0UDSDWsj33H_eJTzJVy-4" value="USE CASE 26" style="ellipse;whiteSpace=wrap;html=1;" vertex="1" parent="1">
          <mxGeometry x="610" y="190" width="120" height="80" as="geometry" />
        </mxCell>
        <mxCell id="T0UDSDWsj33H_eJTzJVy-5" value="USE CASE 27" style="ellipse;whiteSpace=wrap;html=1;" vertex="1" parent="1">
          <mxGeometry x="600" y="330" width="120" height="80" as="geometry" />
        </mxCell>
        <mxCell id="T0UDSDWsj33H_eJTzJVy-7" style="edgeStyle=orthogonalEdgeStyle;rounded=0;orthogonalLoop=1;jettySize=auto;html=1;exitX=0;exitY=1;exitDx=0;exitDy=0;entryX=0.511;entryY=-0.075;entryDx=0;entryDy=0;entryPerimeter=0;" edge="1" parent="1" source="T0UDSDWsj33H_eJTzJVy-1" target="T0UDSDWsj33H_eJTzJVy-2">
          <mxGeometry relative="1" as="geometry" />
        </mxCell>
        <mxCell id="T0UDSDWsj33H_eJTzJVy-8" style="edgeStyle=orthogonalEdgeStyle;rounded=0;orthogonalLoop=1;jettySize=auto;html=1;exitX=0.5;exitY=1;exitDx=0;exitDy=0;entryX=0.567;entryY=0.008;entryDx=0;entryDy=0;entryPerimeter=0;" edge="1" parent="1" source="T0UDSDWsj33H_eJTzJVy-1" target="T0UDSDWsj33H_eJTzJVy-3">
          <mxGeometry relative="1" as="geometry" />
        </mxCell>
      </root>
    </mxGraphModel>
  </diagram>
</mxfile>
